<?xml version="1.0" encoding="UTF-8" standalone="no"?> <svg xmlns="http://www.w3.org/2000/svg" viewBox="0 0 64 64"><g id="_28-Microphone" data-name="28-Microphone"><path d="M52,30V24a1,1,0,0,0-2,0v6a18,18,0,0,1-36,0V24a1,1,0,0,0-2,0v6A20.01305,20.01305,0,0,0,29,49.74994V56H20a3.00328,3.00328,0,0,0-3,3v2a.99943.99943,0,0,0,1,1H46a.99943.99943,0,0,0,1-1V59a3.00328,3.00328,0,0,0-3-3H35V49.74994A20.01305,20.01305,0,0,0,52,30ZM45,59v1H19V59a.98961.98961,0,0,1,1-1H44A.98961.98961,0,0,1,45,59ZM33,56H31V49.94934c.3335.0166.66248.05066,1,.05066s.6665-.03406,1-.05066ZM32,44A14.01572,14.01572,0,0,0,46,30V16a14,14,0,0,0-28,0V30A14.01572,14.01572,0,0,0,32,44ZM25,28H20V24h5a1,1,0,0,0,0-2H20V18h5a1,1,0,0,0,0-2H20A12.00923,12.00923,0,0,1,31,4.05066V9a1,1,0,0,0,2,0V4.05066A12.00923,12.00923,0,0,1,44,16H39a1,1,0,0,0,0,2h5v4H39a1,1,0,0,0,0,2h5v4H39a1,1,0,0,0,0,2h5A12.00923,12.00923,0,0,1,33,41.94934V37a1,1,0,0,0-2,0v4.94934A12.00923,12.00923,0,0,1,20,30h5a1,1,0,0,0,0-2Z"/></g></svg>